<?xml version="1.0" encoding="utf-8"?>
<!-- Generator: Adobe Illustrator 23.0.3, SVG Export Plug-In . SVG Version: 6.00 Build 0)  -->
<svg version="1.1"
	 id="logosvg.com" inkscape:version="0.91 r13725" sodipodi:docname="Rockstar NYC.svg" xmlns:cc="http://creativecommons.org/ns#" xmlns:dc="http://purl.org/dc/elements/1.1/" xmlns:inkscape="http://www.inkscape.org/namespaces/inkscape" xmlns:rdf="http://www.w3.org/1999/02/22-rdf-syntax-ns#" xmlns:sodipodi="http://sodipodi.sourceforge.net/DTD/sodipodi-0.dtd" xmlns:svg="http://www.w3.org/2000/svg"
	 xmlns="http://www.w3.org/2000/svg" xmlns:xlink="http://www.w3.org/1999/xlink" x="0px" y="0px" viewBox="0 0 216 198.8"
	 style="enable-background:new 0 0 216 198.8;" xml:space="preserve">
<style type="text/css">
	.st0{fill:#FFAB00;}
	.st1{fill:#FFFFFF;}
	.st2{fill:#040301;}
</style>
<path id="orange" inkscape:connector-curvature="0" class="st0" d="M211.7,161.6c0,18.4-14.8,32.7-33.7,32.7H37.9
	C19,194.4,4.3,180,4.3,161.6V37.1c0-18.4,14.9-32.9,34-32.9h140.2c18.7,0,33.3,14.4,33.3,32.9v124.5H211.7z"/>
<path id="white" inkscape:connector-curvature="0" class="st1" d="M173,122.1h-17.9l-3.1-19.5l-11.5,19.3h-18.1l11,11.6l-9,19.5
	l19.8-11.8l15.5,12l-2.9-19.7"/>
<path id="black" class="st2" d="M213.3,192.7c0-0.7-0.2-1.2-0.8-1.4c-0.3-0.1-0.8-0.2-1.5-0.2v0.1h-2v5.4h1v-2.1h0.7
	c0.5,0,0.9,0.1,1.1,0.2c0.3,0.2,0.5,0.6,0.5,1.2v0.7h0.9v-1.2c0-0.2-0.1-0.5-0.3-0.8c-0.2-0.3-0.5-0.4-0.9-0.5
	c0.3-0.1,0.6-0.2,0.8-0.3C213.1,193.5,213.3,193.2,213.3,192.7z M211.8,193.6c-0.2,0.1-0.5,0.1-0.9,0.1H210v-1.9h0.8
	c0.6,0,1,0.1,1.2,0.2c0.2,0.2,0.4,0.4,0.4,0.8C212.4,193.2,212.2,193.5,211.8,193.6z M211,189c-1.4,0-2.5,0.4-3.5,1.4
	c-0.9,1-1.4,2.1-1.4,3.5c0,1.4,0.4,2.5,1.4,3.5s2.1,1.5,3.5,1.5c1.4,0,2.5-0.5,3.5-1.5s1.5-2.2,1.5-3.5c0-1.4-0.5-2.5-1.5-3.5
	C213.5,189.5,212.4,189,211,189z M214,196.9c-0.8,0.9-1.8,1.3-3,1.3s-2.2-0.5-3-1.3s-1.2-1.8-1.2-3s0.4-2.2,1.2-3
	c0.9-0.9,1.9-1.3,3-1.2c1.2,0,2.2,0.4,3,1.2s1.2,1.8,1.2,3S214.8,196.1,214,196.9z M178.4,0H38.3C17.2,0,0,16.7,0,37.1v124.5
	c0,20.7,16.6,37,37.9,37h140.2c21.3,0,37.9-16.3,37.9-37V37.1C216,16.3,199.5,0,178.4,0z M211.8,161.6L211.8,161.6
	c-0.1,18.4-14.9,32.7-33.8,32.7H37.9C19,194.4,4.3,180,4.3,161.6V37.1c0-18.4,14.9-32.9,34-32.9h140.2c18.7,0,33.3,14.4,33.3,32.9
	V161.6z M154.1,91.2L138.3,118h-3c-1.8-3.1-2.5-7.6-2.5-10.4c0-4.6,0.3-9.1,0.3-15c0-7.8-2.3-11.9-8.4-13.4V79
	c12.9-1.8,18.8-10.4,18.8-22.4c0-17.1-11.4-20.8-26.3-20.8H77.1l-17,80.4h21.3l6.2-29.3h14.2c7.6,0,10.7,3.7,10.7,10.8
	c0,5.4-0.6,9.7-0.6,13.8c0,1.5,0.3,5.1,1.4,6.5l15.4,16.3l-13.3,28.5l28.4-16.9l21.2,16.3l-3.9-26.9l24.4-17.1l0,0h-27.1L154.1,91.2
	z M108.2,71.9h-17l4.1-19.4h15.8c5.6,0,11.5,1.5,11.5,8.3C122.6,69.5,115.9,71.9,108.2,71.9z M156.9,133.5l2.9,19.8l-15.6-12.1v0
	L124.4,153l9.1-19.4l-11-11.6h18.1l11.4-19.3l3.1,19.5h18L156.9,133.5z"/>
</svg>
